<svg xmlns="http://www.w3.org/2000/svg" width="960" height="600" viewBox="0 0 960 600" fill="none" role="img" aria-label="Vista tipo dashboard">
  <defs>
    <linearGradient id="g" x1="0" y1="0" x2="1" y2="1">
      <stop offset="0" stop-color="#0f172a"/>
      <stop offset="1" stop-color="#0d9488"/>
    </linearGradient>
  </defs>
  <rect width="960" height="600" rx="24" fill="#f8fafc"/>
  <rect x="32" y="32" width="896" height="64" rx="16" fill="#ffffff" stroke="#e2e8f0"/>
  <rect x="56" y="52" width="120" height="24" rx="8" fill="url(#g)" opacity="0.9"/>
  <rect x="720" y="52" width="184" height="24" rx="8" fill="#e2e8f0"/>
  <rect x="32" y="120" width="260" height="448" rx="20" fill="#ffffff" stroke="#e2e8f0"/>
  <rect x="56" y="148" width="120" height="10" rx="5" fill="#cbd5e1"/>
  <rect x="56" y="176" width="200" height="8" rx="4" fill="#e2e8f0"/>
  <rect x="56" y="204" width="180" height="8" rx="4" fill="#e2e8f0"/>
  <rect x="56" y="232" width="190" height="8" rx="4" fill="#e2e8f0"/>
  <rect x="312" y="120" width="616" height="448" rx="20" fill="#ffffff" stroke="#e2e8f0"/>
  <rect x="336" y="148" width="220" height="18" rx="6" fill="#0f172a" opacity="0.85"/>
  <rect x="336" y="182" width="360" height="10" rx="5" fill="#cbd5e1"/>
  <rect x="336" y="230" width="180" height="96" rx="16" fill="#f1f5f9" stroke="#e2e8f0"/>
  <rect x="528" y="230" width="180" height="96" rx="16" fill="#f1f5f9" stroke="#e2e8f0"/>
  <rect x="720" y="230" width="180" height="96" rx="16" fill="#ecfdf5" stroke="#99f6e4"/>
  <rect x="336" y="350" width="564" height="190" rx="16" fill="#f8fafc" stroke="#e2e8f0"/>
  <rect x="360" y="378" width="516" height="10" rx="5" fill="#e2e8f0"/>
  <rect x="360" y="404" width="516" height="10" rx="5" fill="#e2e8f0"/>
  <rect x="360" y="430" width="516" height="10" rx="5" fill="#e2e8f0"/>
  <rect x="360" y="456" width="516" height="10" rx="5" fill="#e2e8f0"/>
  <rect x="360" y="482" width="516" height="10" rx="5" fill="#e2e8f0"/>
</svg>
