<svg xmlns="http://www.w3.org/2000/svg" width="960" height="600" viewBox="0 0 960 600" fill="none" role="img" aria-label="Vista tipo listado de productos">
  <rect width="960" height="600" rx="24" fill="#f8fafc"/>
  <rect x="32" y="32" width="896" height="72" rx="18" fill="#ffffff" stroke="#e2e8f0"/>
  <rect x="56" y="56" width="200" height="22" rx="8" fill="#0f172a" opacity="0.85"/>
  <rect x="680" y="56" width="224" height="22" rx="8" fill="#e2e8f0"/>
  <rect x="32" y="128" width="896" height="440" rx="20" fill="#ffffff" stroke="#e2e8f0"/>
  <rect x="56" y="156" width="120" height="10" rx="5" fill="#94a3b8"/>
  <rect x="200" y="156" width="220" height="10" rx="5" fill="#94a3b8"/>
  <rect x="460" y="156" width="120" height="10" rx="5" fill="#94a3b8"/>
  <rect x="620" y="156" width="120" height="10" rx="5" fill="#94a3b8"/>
  <rect x="780" y="156" width="120" height="10" rx="5" fill="#94a3b8"/>
  <g opacity="0.95">
    <rect x="56" y="190" width="848" height="44" rx="12" fill="#f8fafc" stroke="#e2e8f0"/>
    <rect x="56" y="246" width="848" height="44" rx="12" fill="#ffffff" stroke="#e2e8f0"/>
    <rect x="56" y="302" width="848" height="44" rx="12" fill="#f8fafc" stroke="#e2e8f0"/>
    <rect x="56" y="358" width="848" height="44" rx="12" fill="#ffffff" stroke="#e2e8f0"/>
    <rect x="56" y="414" width="848" height="44" rx="12" fill="#f8fafc" stroke="#e2e8f0"/>
    <rect x="56" y="470" width="848" height="44" rx="12" fill="#ffffff" stroke="#e2e8f0"/>
  </g>
  <rect x="72" y="204" width="90" height="10" rx="5" fill="#cbd5e1"/>
  <rect x="220" y="204" width="240" height="10" rx="5" fill="#cbd5e1"/>
  <rect x="72" y="260" width="90" height="10" rx="5" fill="#cbd5e1"/>
  <rect x="220" y="260" width="260" height="10" rx="5" fill="#cbd5e1"/>
</svg>
