<svg xmlns="http://www.w3.org/2000/svg" width="960" height="600" viewBox="0 0 960 600" fill="none" role="img" aria-label="Vista tipo historial de movimientos">
  <rect width="960" height="600" rx="24" fill="#f8fafc"/>
  <rect x="32" y="32" width="896" height="72" rx="18" fill="#ffffff" stroke="#e2e8f0"/>
  <rect x="56" y="56" width="260" height="22" rx="8" fill="#0f172a" opacity="0.85"/>
  <rect x="640" y="56" width="264" height="22" rx="8" fill="#e2e8f0"/>
  <rect x="32" y="128" width="896" height="440" rx="20" fill="#ffffff" stroke="#e2e8f0"/>
  <rect x="56" y="164" width="200" height="120" rx="18" fill="#ecfdf5" stroke="#99f6e4"/>
  <rect x="280" y="164" width="200" height="120" rx="18" fill="#fff7ed" stroke="#fed7aa"/>
  <rect x="504" y="164" width="200" height="120" rx="18" fill="#eff6ff" stroke="#bfdbfe"/>
  <rect x="728" y="164" width="176" height="120" rx="18" fill="#f1f5f9" stroke="#e2e8f0"/>
  <rect x="56" y="312" width="848" height="232" rx="18" fill="#f8fafc" stroke="#e2e8f0"/>
  <rect x="80" y="344" width="800" height="12" rx="6" fill="#e2e8f0"/>
  <rect x="80" y="372" width="800" height="12" rx="6" fill="#e2e8f0"/>
  <rect x="80" y="400" width="800" height="12" rx="6" fill="#e2e8f0"/>
  <rect x="80" y="428" width="800" height="12" rx="6" fill="#e2e8f0"/>
  <rect x="80" y="456" width="800" height="12" rx="6" fill="#e2e8f0"/>
  <rect x="80" y="484" width="800" height="12" rx="6" fill="#e2e8f0"/>
</svg>
